<svg viewBox="0 0 160 160" xmlns="http://www.w3.org/2000/svg"><path d="M64.4 76.4c2.667 2 4.733 4.433 6.2 7.3 1.467 2.867 2.2 6.1 2.2 9.7 0 7.2-2.333 13.033-7 17.5-4.667 4.467-10.467 6.7-17.4 6.7-6.267 0-11.4-1.933-15.4-5.8s-6-8.867-6-15c0-3.2.6-6.267 1.8-9.2 1.2-2.933 3.333-6.667 6.4-11.2L56.8 43h23.8L64.4 76.4zm52.4 0c2.667 2 4.733 4.433 6.2 7.3 1.467 2.867 2.2 6.1 2.2 9.7 0 7.2-2.333 13.033-7 17.5-4.667 4.467-10.467 6.7-17.4 6.7-6.267 0-11.4-1.933-15.4-5.8s-6-8.867-6-15c0-3.2.6-6.267 1.8-9.2 1.2-2.933 3.333-6.667 6.4-11.2L109.2 43H133l-16.2 33.4z" stroke="#393A36" stroke-width="5" fill="none" fill-rule="evenodd"/></svg>