<svg xmlns="http://www.w3.org/2000/svg" viewBox="0 0 160 160"><g fill="none" fill-rule="evenodd"><circle cx="80" cy="80" r="75" stroke="#393A36" stroke-width="10"/><path fill="#393A36" fill-rule="nonzero" d="M64.5,79.5 C68.166685,81.0000075 71.0416563,83.3749838 73.125,86.625 C75.2083437,89.8750162 76.25,93.7499775 76.25,98.25 C76.25,104.25003 74.3333525,109.166648 70.5,113 C66.6666475,116.833352 61.916695,118.75 56.25,118.75 C50.24997,118.75 45.3333525,116.833352 41.5,113 C37.6666475,109.166648 35.75,104.25003 35.75,98.25 C35.75,95.249985 36.1249963,92.3333475 36.875,89.5 C37.6250037,86.6666525 39.0833225,82.416695 41.25,76.75 L54.5,41.25 L74.5,41.25 L64.5,79.5 Z M112.5,79.5 C116.166685,81.0000075 119.041656,83.3749838 121.125,86.625 C123.208344,89.8750162 124.25,93.7499775 124.25,98.25 C124.25,104.25003 122.333352,109.166648 118.5,113 C114.666648,116.833352 109.916695,118.75 104.25,118.75 C98.24997,118.75 93.3333525,116.833352 89.5,113 C85.6666475,109.166648 83.75,104.25003 83.75,98.25 C83.75,95.249985 84.1249962,92.3333475 84.875,89.5 C85.6250038,86.6666525 87.0833225,82.416695 89.25,76.75 L102.5,41.25 L122.5,41.25 L112.5,79.5 Z"/></g></svg>