<svg xmlns="http://www.w3.org/2000/svg" viewBox="0 0 160 160"><g fill="none" fill-rule="evenodd"><path fill="#D8D8D8" d="M0 0H160V160H0z"/><path fill="#E9E9E9" fill-rule="nonzero" d="M68,79.8 C71.33335,81.266674 73.933324,83.466652 75.8,86.4 C77.666676,89.333348 78.6,92.79998 78.6,96.8 C78.6,102.533362 76.800018,107.166649 73.2,110.7 C69.599982,114.233351 65.000028,116 59.4,116 C53.799972,116 49.166685,114.200018 45.5,110.6 C41.833315,106.999982 40,102.400028 40,96.8 C40,94.13332 40.33333,91.46668 41,88.8 C41.66667,86.13332 43.133322,82.13336 45.4,76.8 L57,48 L76.8,48 L68,79.8 Z M115.2,79.8 C118.53335,81.266674 121.133324,83.466652 123,86.4 C124.866676,89.333348 125.8,92.79998 125.8,96.8 C125.8,102.533362 124.000018,107.166649 120.4,110.7 C116.799982,114.233351 112.200028,116 106.6,116 C100.999972,116 96.366685,114.200018 92.7,110.6 C89.033315,106.999982 87.2,102.400028 87.2,96.8 C87.2,94.13332 87.53333,91.46668 88.2,88.8 C88.86667,86.13332 90.333322,82.13336 92.6,76.8 L104.2,48 L124,48 L115.2,79.8 Z"/><path fill="#393A36" fill-rule="nonzero" d="M63,74.8 C66.33335,76.266674 68.933324,78.466652 70.8,81.4 C72.666676,84.333348 73.6,87.79998 73.6,91.8 C73.6,97.533362 71.800018,102.166649 68.2,105.7 C64.599982,109.233351 60.000028,111 54.4,111 C48.799972,111 44.166685,109.200018 40.5,105.6 C36.833315,101.999982 35,97.400028 35,91.8 C35,89.13332 35.33333,86.46668 36,83.8 C36.66667,81.13332 38.133322,77.13336 40.4,71.8 L52,43 L71.8,43 L63,74.8 Z M110.2,74.8 C113.53335,76.266674 116.133324,78.466652 118,81.4 C119.866676,84.333348 120.8,87.79998 120.8,91.8 C120.8,97.533362 119.000018,102.166649 115.4,105.7 C111.799982,109.233351 107.200028,111 101.6,111 C95.999972,111 91.366685,109.200018 87.7,105.6 C84.033315,101.999982 82.2,97.400028 82.2,91.8 C82.2,89.13332 82.53333,86.46668 83.2,83.8 C83.86667,81.13332 85.333322,77.13336 87.6,71.8 L99.2,43 L119,43 L110.2,74.8 Z"/></g></svg>