<svg xmlns="http://www.w3.org/2000/svg" viewBox="0 0 160 160"><g fill="none" fill-rule="nonzero"><path fill="#9B9B9B" d="M112.6,73.8 C115.666682,75.933344 117.999992,78.633317 119.6,81.9 C121.200008,85.166683 122,88.79998 122,92.8 C122,101.066708 119.266694,107.766641 113.8,112.9 C108.333306,118.033359 101.60004,120.6 93.6,120.6 C86.26663,120.6 80.333356,118.400022 75.8,114 C71.266644,109.599978 69,103.866702 69,96.8 C69,93.199982 69.66666,89.73335 71,86.4 C72.33334,83.06665 74.799982,78.800026 78.4,73.6 L102,39 L130,39 L112.6,73.8 Z"/><path fill="#393A36" stroke="#FFF" stroke-width="5" d="M65.320967,41.5 L64,41.5 L66.0653158,40.4087125 L65.320967,41.5 Z M77.7616227,73.0669245 C80.3392844,75.211026 82.3726713,77.7940069 83.8451568,80.8003314 C85.6171639,84.4181792 86.5,88.4277266 86.5,92.8 C86.5,101.738943 83.4958021,109.102892 77.5113309,114.722456 C71.5725113,120.299153 64.2248337,123.1 55.6,123.1 C47.6413801,123.1 41.0794507,120.666925 36.0588116,115.793952 C31.0242463,110.907462 28.5,104.522604 28.5,96.8 C28.5,92.8821579 29.2272644,89.100383 30.6788083,85.4715233 C32.093673,81.9343614 34.6468572,77.5180429 38.3346842,72.1912875 L62.6790307,36.5 L96.045085,36.5 L77.7616227,73.0669245 Z"/></g></svg>