<svg xmlns="http://www.w3.org/2000/svg" viewBox="0 0 160 160"><g fill="none" fill-rule="evenodd"><circle cx="80" cy="80" r="80" fill="#393A36"/><path fill="#FFF" fill-rule="nonzero" d="M53.25,49.4 C59.050029,49.4 63.7999815,51.1499825 67.5,54.65 C71.2000185,58.1500175 73.05,62.799971 73.05,68.6 C73.05,71.200013 72.7000035,73.799987 72,76.4 C71.2999965,79.000013 69.7000125,82.9499735 67.2,88.25 L56.7,110.6 L35.7,110.6 L43.2,85.25 C40.0999845,83.7499925 37.7000085,81.5750142 36,78.725 C34.2999915,75.8749857 33.45,72.5000195 33.45,68.6 C33.45,62.799971 35.2999815,58.1500175 39,54.65 C42.7000185,51.1499825 47.449971,49.4 53.25,49.4 Z M106.75,49.4 C112.550029,49.4 117.299982,51.1499825 121,54.65 C124.700018,58.1500175 126.55,62.799971 126.55,68.6 C126.55,71.200013 126.200004,73.799987 125.5,76.4 C124.799996,79.000013 123.200013,82.9499735 120.7,88.25 L110.2,110.6 L89.2,110.6 L96.7,85.25 C93.5999845,83.7499925 91.2000085,81.5750142 89.5,78.725 C87.7999915,75.8749857 86.95,72.5000195 86.95,68.6 C86.95,62.799971 88.7999815,58.1500175 92.5,54.65 C96.2000185,51.1499825 100.949971,49.4 106.75,49.4 Z"/></g></svg>