<svg xmlns="http://www.w3.org/2000/svg" viewBox="0 0 160 160"><g fill="none" fill-rule="evenodd"><circle cx="80" cy="80" r="75" stroke="#393A36" stroke-width="10"/><path fill="#393A36" fill-rule="nonzero" d="M56,41.25 C61.8333625,41.25 66.6666475,43.1666475 70.5,47 C74.3333525,50.8333525 76.25,55.74997 76.25,61.75 C76.25,64.750015 75.8750038,67.6666525 75.125,70.5 C74.3749962,73.3333475 72.9166775,77.583305 70.75,83.25 L57.75,118.75 L37.5,118.75 L47.5,80.25 C43.833315,78.91666 40.9583437,76.6250163 38.875,73.375 C36.7916563,70.1249838 35.75,66.2500225 35.75,61.75 C35.75,55.74997 37.6666475,50.8333525 41.5,47 C45.3333525,43.1666475 50.1666375,41.25 56,41.25 Z M104,41.25 C109.833363,41.25 114.666648,43.1666475 118.5,47 C122.333352,50.8333525 124.25,55.74997 124.25,61.75 C124.25,64.750015 123.875004,67.6666525 123.125,70.5 C122.374996,73.3333475 120.916677,77.583305 118.75,83.25 L105.75,118.75 L85.5,118.75 L95.5,80.25 C91.833315,78.91666 88.9583437,76.6250163 86.875,73.375 C84.7916563,70.1249838 83.75,66.2500225 83.75,61.75 C83.75,55.74997 85.6666475,50.8333525 89.5,47 C93.3333525,43.1666475 98.1666375,41.25 104,41.25 Z"/></g></svg>