<svg xmlns="http://www.w3.org/2000/svg" viewBox="0 0 160 160">
<g fill="none" fill-rule="evenodd">
<circle cx="80" cy="80" r="80" fill="#393A36"/><path fill="#FFF" fill-rule="nonzero" d="M63.3,74.75 C66.4000155,76.2500075 68.7999915,78.4249857 70.5,81.275 C72.2000085,84.1250142 73.05,87.4999805 73.05,91.4 C73.05,97.200029 71.2000185,101.849982 67.5,105.35 C63.7999815,108.850018 59.050029,110.6 53.25,110.6 C47.449971,110.6 42.7000185,108.850018 39,105.35 C35.2999815,101.849982 33.45,97.200029 33.45,91.4 C33.45,88.799987 33.7999965,86.200013 34.5,83.6 C35.2000035,80.999987 36.7999875,77.0500265 39.3,71.75 L49.8,49.4 L70.8,49.4 L63.3,74.75 Z M116.8,74.75 C119.900016,76.2500075 122.299992,78.4249857 124,81.275 C125.700008,84.1250142 126.55,87.4999805 126.55,91.4 C126.55,97.200029 124.700018,101.849982 121,105.35 C117.299982,108.850018 112.550029,110.6 106.75,110.6 C100.949971,110.6 96.2000185,108.850018 92.5,105.35 C88.7999815,101.849982 86.95,97.200029 86.95,91.4 C86.95,88.799987 87.2999965,86.200013 88,83.6 C88.7000035,80.999987 90.2999875,77.0500265 92.8,71.75 L103.3,49.4 L124.3,49.4 L116.8,74.75 Z"/>
</g></svg>