<svg xmlns="http://www.w3.org/2000/svg" viewBox="0 0 160 160"><g fill="none" fill-rule="nonzero"><path fill="#9B9B9B" d="M67.4,39 C74.73337,39 80.666644,41.199978 85.2,45.6 C89.733356,50.000022 92,55.733298 92,62.8 C92,66.400018 91.33334,69.86665 90,73.2 C88.66666,76.53335 86.200018,80.799974 82.6,86 L59,120.6 L31,120.6 L48.4,85.8 C45.333318,83.666656 43.000008,80.966683 41.4,77.7 C39.799992,74.433317 39,70.80002 39,66.8 C39,58.533292 41.733306,51.833359 47.2,46.7 C52.666694,41.566641 59.39996,39 67.4,39 Z"/><path fill="#393A36" stroke="#FFF" stroke-width="5" d="M83.2383773,86.5330755 C80.6607156,84.388974 78.6273287,81.8059931 77.1548432,78.7996686 C75.3828361,75.1818208 74.5,71.1722734 74.5,66.8 C74.5,57.8610567 77.5041979,50.4971082 83.4886691,44.8775438 C89.4274887,39.3008474 96.7751663,36.5 105.4,36.5 C113.35862,36.5 119.920549,38.9330749 124.941188,43.8060483 C129.975754,48.692538 132.5,55.0773964 132.5,62.8 C132.5,66.7178421 131.772736,70.499617 130.321192,74.1284767 C128.906327,77.6656386 126.353143,82.0819571 122.665316,87.4087125 L98.3209693,123.1 L64.954915,123.1 L83.2383773,86.5330755 Z"/></g></svg>