<svg viewBox="0 0 160 160" xmlns="http://www.w3.org/2000/svg"><path d="M72 42c3.667 0 6.75 1.25 9.25 3.75S85 51.333 85 55c0 3.333-.667 6.417-2 9.25s-2.167 4.583-2.5 5.25l-30.5 67h-9l28.5-69c-3-.333-5.5-1.75-7.5-4.25S59 58 59 55c0-3.667 1.333-6.75 4-9.25S68.667 42 72 42zm35-20c3.667 0 6.75 1.25 9.25 3.75S120 31.333 120 35c0 3.333-.667 6.417-2 9.25s-2.167 4.583-2.5 5.25l-30.5 67h-9l28.5-69c-3-.333-5.5-1.75-7.5-4.25S94 38 94 35c0-3.667 1.333-6.75 4-9.25s5.667-3.75 9-3.75z" fill="#393A36" fill-rule="nonzero"/></svg>