<svg viewBox="0 0 160 160" xmlns="http://www.w3.org/2000/svg"><path d="M59.2 43c6.4 0 11.567 1.9 15.5 5.7 3.933 3.8 5.9 8.833 5.9 15.1 0 3.2-.6 6.267-1.8 9.2-1.2 2.933-3.267 6.667-6.2 11.2l-21.8 33.4H27L43.2 84c-2.667-1.867-4.733-4.233-6.2-7.1-1.467-2.867-2.2-6.1-2.2-9.7 0-7.2 2.367-13.033 7.1-17.5 4.733-4.467 10.5-6.7 17.3-6.7zm52.4 0c6.4 0 11.567 1.9 15.5 5.7 3.933 3.8 5.9 8.833 5.9 15.1 0 3.2-.6 6.267-1.8 9.2-1.2 2.933-3.267 6.667-6.2 11.2l-21.8 33.4H79.4L95.6 84c-2.667-1.867-4.733-4.233-6.2-7.1-1.467-2.867-2.2-6.1-2.2-9.7 0-7.2 2.367-13.033 7.1-17.5 4.733-4.467 10.5-6.7 17.3-6.7z" stroke="#393A36" stroke-width="5" fill="none" fill-rule="evenodd"/></svg>