<svg xmlns="http://www.w3.org/2000/svg" viewBox="0 0 160 160"><g fill="none" fill-rule="evenodd"><path fill="#D8D8D8" d="M0 0H160V160H0z"/><path fill="#E9E9E9" fill-rule="nonzero" d="M59.4,48 C65.000028,48 69.599982,49.766649 73.2,53.3 C76.800018,56.833351 78.6,61.466638 78.6,67.2 C78.6,69.86668 78.26667,72.53332 77.6,75.2 C76.93333,77.86668 75.533344,81.86664 73.4,87.2 L61.8,116 L42,116 L50.6,84.4 C47.26665,82.933326 44.666676,80.733348 42.8,77.8 C40.933324,74.866652 40,71.333354 40,67.2 C40,61.466638 41.833315,56.833351 45.5,53.3 C49.166685,49.766649 53.799972,48 59.4,48 Z M106.6,48 C112.200028,48 116.799982,49.766649 120.4,53.3 C124.000018,56.833351 125.8,61.466638 125.8,67.2 C125.8,69.86668 125.46667,72.53332 124.8,75.2 C124.13333,77.86668 122.733344,81.86664 120.6,87.2 L109,116 L89.2,116 L97.8,84.4 C94.46665,82.933326 91.866676,80.733348 90,77.8 C88.133324,74.866652 87.2,71.333354 87.2,67.2 C87.2,61.466638 89.033315,56.833351 92.7,53.3 C96.366685,49.766649 100.999972,48 106.6,48 Z"/><path fill="#393A36" fill-rule="nonzero" d="M54.4,43 C60.000028,43 64.599982,44.766649 68.2,48.3 C71.800018,51.833351 73.6,56.466638 73.6,62.2 C73.6,64.86668 73.26667,67.53332 72.6,70.2 C71.93333,72.86668 70.533344,76.86664 68.4,82.2 L56.8,111 L37,111 L45.6,79.4 C42.26665,77.933326 39.666676,75.733348 37.8,72.8 C35.933324,69.866652 35,66.333354 35,62.2 C35,56.466638 36.833315,51.833351 40.5,48.3 C44.166685,44.766649 48.799972,43 54.4,43 Z M101.6,43 C107.200028,43 111.799982,44.766649 115.4,48.3 C119.000018,51.833351 120.8,56.466638 120.8,62.2 C120.8,64.86668 120.46667,67.53332 119.8,70.2 C119.13333,72.86668 117.733344,76.86664 115.6,82.2 L104,111 L84.2,111 L92.8,79.4 C89.46665,77.933326 86.866676,75.733348 85,72.8 C83.133324,69.866652 82.2,66.333354 82.2,62.2 C82.2,56.466638 84.033315,51.833351 87.7,48.3 C91.366685,44.766649 95.999972,43 101.6,43 Z"/></g></svg>